<svg id="Layer_1" data-name="Layer 1" xmlns="http://www.w3.org/2000/svg" viewBox="0 0 846.74 257.39"><defs><style>.cls-1,.cls-2{fill:#275ba7;}.cls-2{stroke:#275ba7;stroke-miterlimit:10;}</style></defs><title>LockdownEnterprise-lock-white</title><path class="cls-1" d="M205.54,113.17V39.66H195.2v73.51a14.17,14.17,0,0,0,14.16,14.16h11.57V117H209.36A3.92,3.92,0,0,1,205.54,113.17Z"/><path class="cls-1" d="M281.18,61H242.06A14.18,14.18,0,0,0,227.9,75.18v38a14.18,14.18,0,0,0,14.16,14.16h39.12a14.32,14.32,0,0,0,10.05-4.2,13.43,13.43,0,0,0,4.22-10.07v-38a13.8,13.8,0,0,0-4.2-9.94A13.53,13.53,0,0,0,281.18,61Zm0,56H242.06a3.93,3.93,0,0,1-3.82-3.82v-38a3.83,3.83,0,0,1,3.82-3.82h39.12A3.92,3.92,0,0,1,285,75.18v38A3.93,3.93,0,0,1,281.18,117Z"/><path class="cls-1" d="M316,113.17v-38a3.82,3.82,0,0,1,3.82-3.82H373V61H319.84a14.17,14.17,0,0,0-14.16,14.16v38a14.17,14.17,0,0,0,14.16,14.16h53.39V117H319.84A3.82,3.82,0,0,1,316,113.17Z"/><polygon class="cls-1" points="435.02 61.02 409.39 89 392.22 89 392.22 39.66 381.88 39.66 381.88 127.33 392.22 127.33 392.22 99.34 409.39 99.34 435.02 127.33 448.56 127.33 418.6 94.17 448.67 61.02 435.02 61.02"/><path class="cls-1" d="M508.21,61.13H465.29a14,14,0,0,0-14.18,14.05v38a14,14,0,0,0,13.77,14.19h53.67V39.66H508.21ZM461.45,75.18a3.83,3.83,0,0,1,3.82-3.82h39.12a3.92,3.92,0,0,1,3.82,3.82v38a3.93,3.93,0,0,1-3.82,3.82H465.27a3.83,3.83,0,0,1-3.82-3.82Z"/><path class="cls-1" d="M579.91,61H540.8a14.17,14.17,0,0,0-14.16,14.16v38a14.17,14.17,0,0,0,14.16,14.16H580a14.17,14.17,0,0,0,14.16-14.16V75.06a14.28,14.28,0,0,0-4.24-10A13.77,13.77,0,0,0,579.91,61ZM537,75.18a3.83,3.83,0,0,1,3.82-3.82h39.11a3.92,3.92,0,0,1,3.83,3.82v38a3.93,3.93,0,0,1-3.83,3.82H540.8a3.93,3.93,0,0,1-3.82-3.82Z"/><polygon class="cls-1" points="684.39 108.57 662.43 61.02 649.57 61.02 628.93 108.68 609.51 61.02 598.42 61.02 624.49 127.33 633.34 127.33 656.02 74.33 679.92 127.33 688.65 127.33 713.69 61.02 702.49 61.02 684.39 108.57"/><path class="cls-1" d="M774.58,61H721.19v66.31h10.34V75.18a3.51,3.51,0,0,1,1.19-2.75,4.06,4.06,0,0,1,2.75-1.07h39.11a3.92,3.92,0,0,1,3.82,3.82v52.15h10.34V75.18A14.17,14.17,0,0,0,774.58,61Z"/><path class="cls-2" d="M240.4,154.69v5.63h-40v16.52h32.15v5.7H200.41v16.52h40v5.63H194.78v-50Z"/><path class="cls-2" d="M302.1,198.3V154.69h5.62v50H300l-36.67-43.61v43.61h-5.62v-50h7.71Z"/><path class="cls-2" d="M322.9,154.69h50v5.63H350.74v44.37h-5.62V160.32H322.9v-5.63Z"/><path class="cls-2" d="M433.76,154.69v5.63h-40v16.52h32.15v5.7H393.76v16.52h40v5.63H388.14v-50Z"/><path class="cls-2" d="M501,163.09v14.65a8.36,8.36,0,0,1-8.33,8.34H485l15.69,18.61H493.3l-15.62-18.61H459.35c-.91-.07-1.81-.14-2.71-.28v18.89H451V154.76h41.66a8.36,8.36,0,0,1,8.33,8.33Zm-41.66,17.29h33.33a2.62,2.62,0,0,0,2.63-2.57V163.09a3,3,0,0,0-.76-1.94,2.4,2.4,0,0,0-1.87-.76H459.35a2.71,2.71,0,0,0-2.71,2.7v14.65a2.72,2.72,0,0,0,.76,1.88,2.41,2.41,0,0,0,2,.76Z"/><path class="cls-2" d="M518.27,154.76h41.66a8.36,8.36,0,0,1,8.33,8.33h0v14.65a8.36,8.36,0,0,1-8.33,8.34H526.6c-.9-.07-1.81-.14-2.71-.28v18.89h-5.62Zm44.37,23V163.09a2.76,2.76,0,0,0-2.71-2.7H526.6a2.71,2.71,0,0,0-2.71,2.7v14.65a2.62,2.62,0,0,0,2.71,2.64h33.33a3,3,0,0,0,1.94-.76,2.56,2.56,0,0,0,.77-1.88Z"/><path class="cls-2" d="M633,163.09v14.65a8.36,8.36,0,0,1-8.33,8.34H617l15.69,18.61h-7.42l-15.63-18.61H591.35c-.9-.07-1.8-.14-2.71-.28v18.89H583V154.76h41.66a8.36,8.36,0,0,1,8.33,8.33Zm-41.66,17.29h33.33a2.62,2.62,0,0,0,2.64-2.57V163.09a3,3,0,0,0-.76-1.94,2.42,2.42,0,0,0-1.88-.76H591.35a2.71,2.71,0,0,0-2.71,2.7v14.65a2.48,2.48,0,0,0,.84,1.88,2.17,2.17,0,0,0,1.87.76Z"/><path class="cls-2" d="M650.34,204.69v-50H656v50Z"/><path class="cls-2" d="M725.09,163V165h-5.62V163a2.76,2.76,0,0,0-2.71-2.7H683.43a2.76,2.76,0,0,0-2.71,2.7V174.2a2.48,2.48,0,0,0,.84,1.88,2.74,2.74,0,0,0,1.94.76h33.33a8.36,8.36,0,0,1,8.33,8.33v11.18a8.36,8.36,0,0,1-8.33,8.34H683.5a8.36,8.36,0,0,1-8.33-8.34v-1.94h5.62v1.94a2.76,2.76,0,0,0,2.71,2.71h33.33a2.71,2.71,0,0,0,2.71-2.71V185.17a2.47,2.47,0,0,0-.84-1.87,2.69,2.69,0,0,0-1.94-.76H683.43a8.36,8.36,0,0,1-8.33-8.34V163a8.36,8.36,0,0,1,8.33-8.33h33.33A8.36,8.36,0,0,1,725.09,163Z"/><path class="cls-2" d="M788.18,154.69v5.63h-40v16.52h32.15v5.7H748.18v16.52h40v5.63H742.56v-50Z"/><path class="cls-1" d="M155.78,109.29H142.29V77.92a36.13,36.13,0,0,0-72.25,0v31.37H56.55a4.37,4.37,0,0,0-4.35,4.35v84.87a4.37,4.37,0,0,0,4.35,4.36H156a4.07,4.07,0,0,0,4.14-4.36V113.64A4.37,4.37,0,0,0,155.78,109.29Zm-25.42,42.46a26.79,26.79,0,0,1-1.48,3.8,20.81,20.81,0,0,1-2.48,3.71,45,45,0,0,1-3.06,3.47c-1,1-2.22,2.15-3.79,3.47s-2.89,2.47-4,3.38l-4.45,3.63c-1.82,1.41-3.31,2.65-4.46,3.55h-.17c-1.32-1.15-3-2.64-5.2-4.45l-5.78-4.46c-1.65-1.32-3.38-2.89-5.2-4.62a41.23,41.23,0,0,1-4.54-5,21,21,0,0,1-2.89-5.11,14.07,14.07,0,0,1-1.15-5.62l-.25-.08v-.08a12,12,0,0,1,3.8-8.67,12.28,12.28,0,0,1,8.91-3.63,9.28,9.28,0,0,1,4,1.07,18.44,18.44,0,0,1,3.38,2.4,30.84,30.84,0,0,1,2.72,3l.25.25.08.08,1.9,2.56,2-2.48a2.29,2.29,0,0,1,.42-.49c.82-1,1.73-2,2.64-3a13.24,13.24,0,0,1,3.46-2.56,9.85,9.85,0,0,1,3.88-.91,11.4,11.4,0,0,1,8.67,3.63,12.28,12.28,0,0,1,3.47,8.83A14.85,14.85,0,0,1,130.36,151.75Zm3.23-42.68H78.75V77.7a27.42,27.42,0,0,1,54.84,0Z"/></svg>